<svg width="100%" viewBox="0 0 680 90" role="img" xmlns="http://www.w3.org/2000/svg">
  <title>Barra de progresso pixel art — céu estrelado</title>
  <desc>Barra de progresso com estética pixel art de céu noturno estrelado</desc>
  <defs>
    <style>
      .label { font-family: 'Courier New', monospace; font-size: 10px; fill: #9d8ec7; letter-spacing: 3px; }
      .count { font-family: 'Courier New', monospace; font-size: 11px; fill: #e0d0ff; font-weight: bold; letter-spacing: 1px; }
      .pct   { font-family: 'Courier New', monospace; font-size: 9px;  fill: #b09ee0; }
    </style>
  </defs>
  <rect width="680" height="90" fill="#08060f"/>
  <rect width="680" height="90" fill="#0d0a1a"/>
  <rect x="0"   y="0"  width="680" height="4"  fill="#1e1535"/>
  <rect x="0"   y="86" width="680" height="4"  fill="#1e1535"/>
  <rect x="0"   y="0"  width="4"   height="90" fill="#1e1535"/>
  <rect x="676" y="0"  width="4"   height="90" fill="#1e1535"/>
  <rect x="4"   y="4"  width="4"  height="4"  fill="#1e1535"/>
  <rect x="672" y="4"  width="4"  height="4"  fill="#1e1535"/>
  <rect x="4"   y="82" width="4"  height="4"  fill="#1e1535"/>
  <rect x="672" y="82" width="4"  height="4"  fill="#1e1535"/>
  <rect x="40"  y="10" width="4" height="4" fill="#ffffff"/>
  <rect x="200" y="16" width="4" height="4" fill="#e8d8ff"/>
  <rect x="380" y="8"  width="4" height="4" fill="#ffffff"/>
  <rect x="540" y="18" width="4" height="4" fill="#d8eeff"/>
  <rect x="628" y="10" width="4" height="4" fill="#ffffff"/>
  <rect x="130" y="26" width="4" height="4" fill="#ffe8d8"/>
  <rect x="460" y="14" width="4" height="4" fill="#e8d8ff"/>
  <rect x="70"  y="20" width="2" height="2" fill="#c8b8e8"/>
  <rect x="110" y="8"  width="2" height="2" fill="#ffffff" opacity="0.9"/>
  <rect x="155" y="32" width="2" height="2" fill="#b8d8ff"/>
  <rect x="240" y="10" width="2" height="2" fill="#ffffff"/>
  <rect x="280" y="28" width="2" height="2" fill="#d8c8ff"/>
  <rect x="320" y="14" width="2" height="2" fill="#ffffff" opacity="0.8"/>
  <rect x="350" y="30" width="2" height="2" fill="#c8e8d8"/>
  <rect x="415" y="22" width="2" height="2" fill="#ffffff"/>
  <rect x="445" y="8"  width="2" height="2" fill="#ffe8b8"/>
  <rect x="490" y="28" width="2" height="2" fill="#d8b8ff"/>
  <rect x="510" y="10" width="2" height="2" fill="#ffffff" opacity="0.9"/>
  <rect x="570" y="24" width="2" height="2" fill="#b8d8ff"/>
  <rect x="600" y="8"  width="2" height="2" fill="#ffffff"/>
  <rect x="650" y="26" width="2" height="2" fill="#e8d8ff"/>
  <rect x="86"  y="32" width="2" height="2" fill="#ffffff" opacity="0.7"/>
  <rect x="170" y="12" width="2" height="2" fill="#ffd8c8" opacity="0.8"/>
  <rect x="310" y="34" width="2" height="2" fill="#c8d8ff"/>
  <rect x="560" y="32" width="2" height="2" fill="#ffffff" opacity="0.7"/>
  <rect x="56"  y="30" width="1" height="1" fill="#6050a0"/>
  <rect x="95"  y="14" width="1" height="1" fill="#8070b8"/>
  <rect x="220" y="24" width="1" height="1" fill="#7060a8"/>
  <rect x="260" y="16" width="1" height="1" fill="#6858a0"/>
  <rect x="336" y="22" width="1" height="1" fill="#8878c0"/>
  <rect x="396" y="30" width="1" height="1" fill="#7060a8"/>
  <rect x="430" y="18" width="1" height="1" fill="#6050a0"/>
  <rect x="478" y="22" width="1" height="1" fill="#8070b8"/>
  <rect x="525" y="30" width="1" height="1" fill="#7868b0"/>
  <rect x="586" y="16" width="1" height="1" fill="#6050a0"/>
  <rect x="665" y="18" width="1" height="1" fill="#8070b8"/>
  <rect x="644" y="4"  width="4" height="4"  fill="#f5e6c0"/>
  <rect x="648" y="4"  width="4" height="4"  fill="#f5e6c0"/>
  <rect x="640" y="8"  width="4" height="4"  fill="#f5e6c0"/>
  <rect x="644" y="8"  width="4" height="4"  fill="#ffe9b8"/>
  <rect x="648" y="8"  width="4" height="4"  fill="#f5e6c0"/>
  <rect x="640" y="12" width="4" height="4"  fill="#f5e6c0"/>
  <rect x="644" y="12" width="4" height="4"  fill="#ffe9b8"/>
  <rect x="648" y="12" width="4" height="4"  fill="#f5e6c0"/>
  <rect x="644" y="16" width="4" height="4"  fill="#f5e6c0"/>
  <rect x="648" y="16" width="4" height="4"  fill="#f5e6c0"/>
  <rect x="648" y="4"  width="4" height="4"  fill="#0d0a1a"/>
  <rect x="648" y="8"  width="4" height="4"  fill="#0d0a1a"/>
  <rect x="648" y="12" width="4" height="4"  fill="#0d0a1a"/>
  <rect x="648" y="16" width="4" height="4"  fill="#0d0a1a"/>
  <rect x="644" y="4"  width="4" height="4"  fill="#0d0a1a"/>
  <text x="20"  y="52" class="label">PROGRESSO</text>
  <text x="660" y="52" class="count" text-anchor="end">22 / 100</text>
  <rect x="20" y="58" width="640" height="16" fill="#1a1030"/>
  <rect x="20" y="58" width="640" height="2"  fill="#2e1f52"/>
  <rect x="20" y="72" width="640" height="2"  fill="#2e1f52"/>
  <rect x="20" y="58" width="2"   height="16" fill="#2e1f52"/>
  <rect x="658" y="58" width="2"  height="16" fill="#2e1f52"/>
  <rect x="22" y="60" width="136" height="12" fill="#5b21b6"/>
  <rect x="22" y="60" width="68"  height="12" fill="#6d28d9"/>
  <rect x="22" y="60" width="34"  height="12" fill="#7c3aed"/>
  <rect x="22" y="60" width="136" height="3"  fill="#a78bfa" opacity="0.35"/>
  <rect x="154" y="60" width="4"  height="12" fill="#8b5cf6"/>
  <rect x="180" y="58" width="2" height="16" fill="#2e1f52"/>
  <rect x="340" y="58" width="2" height="16" fill="#2e1f52"/>
  <rect x="500" y="58" width="2" height="16" fill="#2e1f52"/>
  <text x="340" y="69" class="pct" text-anchor="middle">22%</text>
  <rect x="80"  y="54" width="2" height="2" fill="#b8ff78" opacity="0.7"/>
  <rect x="120" y="56" width="2" height="2" fill="#78ffcc" opacity="0.6"/>
  <rect x="60"  y="56" width="2" height="2" fill="#ffe478" opacity="0.5"/>
</svg>
